PathFileType  4	(X/Y/Z) C:\Users\antoi\Documents\MyRepositories\mobilecap\ResultsAnalysis
DataRate	CameraRate	NumFrames	NumMarkers	Units	OrigDataRate	OrigDataStartFrame	OrigNumFrames
100.0	100.0	4	51	mm	100.0	59	234
Frame#	Time	r_knee			r_shank_antsup			r_ankle			r_calc			r_5meta			r_toe			L_knee			L_shank_antsup			L_ankle			L_calc			L_5meta			L_toe			r_sh2			r_sh3			r_sh4			L_sh2			L_sh3			r_thigh1			r_thigh2			r_thigh3			r_thigh4			r_thigh5			L_thigh1			L_thigh2			L_thigh3			L_thigh4			r.ASIS			r.PSIS			L.ASIS			L.PSIS			C7			R_Shoulder			L_Shoulder			R_Sternum			L_Sternum			R_humerus			R_elbow_med			R_elbow_lat			R_forearm			R_wrist_radius			R_wrist_ulna			L_humerus			L_elbow_med			L_elbow_lat			L_forearm			L_wrist_radius			L_wrist_ulna			R_HJC			L_HJC			R_HJC_reg			L_HJC_reg			
		X1	Y1	Z1	X2	Y2	Z2	X3	Y3	Z3	X4	Y4	Z4	X5	Y5	Z5	X6	Y6	Z6	X7	Y7	Z7	X8	Y8	Z8	X9	Y9	Z9	X10	Y10	Z10	X11	Y11	Z11	X12	Y12	Z12	X13	Y13	Z13	X14	Y14	Z14	X15	Y15	Z15	X16	Y16	Z16	X17	Y17	Z17	X18	Y18	Z18	X19	Y19	Z19	X20	Y20	Z20	X21	Y21	Z21	X22	Y22	Z22	X23	Y23	Z23	X24	Y24	Z24	X25	Y25	Z25	X26	Y26	Z26	X27	Y27	Z27	X28	Y28	Z28	X29	Y29	Z29	X30	Y30	Z30	X31	Y31	Z31	X32	Y32	Z32	X33	Y33	Z33	X34	Y34	Z34	X35	Y35	Z35	X36	Y36	Z36	X37	Y37	Z37	X38	Y38	Z38	X39	Y39	Z39	X40	Y40	Z40	X41	Y41	Z41	X42	Y42	Z42	X43	Y43	Z43	X44	Y44	Z44	X45	Y45	Z45	X46	Y46	Z46	X47	Y47	Z47	X48	Y48	Z48	X49	Y49	Z49	X50	Y50	Z50	X51	Y51	Z51	

59	0.58000000	-1044.62566	753.45105	-438.96600	-1023.24505	674.82515	-456.08719	-1240.53928	408.18147	-468.45111	-1317.01005	377.09338	-505.63668	-1148.58291	352.96986	-427.66462	-1098.15996	375.13879	-483.67803	-1053.41724	741.95668	-741.10532	-1050.30487	642.55073	-739.72909	-1264.89574	409.11780	-720.23627	-1339.50725	373.62244	-681.50778	-1167.66964	350.88264	-764.47456	-1127.52252	370.64125	-706.45357	-1095.40055	584.55135	-437.48380	-1083.63282	718.55160	-424.41024	-1153.34473	630.96226	-422.44810	-1120.73662	695.11913	-755.30361	-1183.43617	589.65592	-761.10597	-1108.28824	1068.36035	-418.01308	-1070.51570	964.47707	-418.12843	-1168.00537	919.43817	-414.51811	-1213.97036	1027.93792	-412.48738	-1114.81640	921.87100	-396.75394	-1106.43073	1003.50181	-798.67333	-1052.84762	879.21749	-771.35378	-1210.91562	964.57303	-760.49955	-1150.67162	837.90562	-744.83521	-1096.69529	1152.97311	-468.44727	-1229.45143	1286.55147	-556.77625	-1081.92997	1132.78481	-711.73555	-1224.43117	1290.57584	-660.38829	-943.66147	1589.35184	-595.93980	-876.38702	1485.30809	-423.35975	-872.85876	1511.39469	-768.94866	-846.64488	1480.27310	-574.15634	-840.95124	1483.58830	-607.77673	-921.41818	1353.02358	-372.22925	-1048.61502	1179.05993	-430.70550	-1025.55704	1177.86574	-362.33883	-956.24392	1054.39963	-374.04523	-917.31016	933.10379	-396.17940	-941.90646	918.57471	-375.96005	-896.87902	1393.56427	-826.14873	-1038.35288	1197.06669	-788.93083	-995.66339	1203.67493	-852.83548	-946.68102	1099.66038	-830.35519	-925.89748	951.80789	-816.20041	-945.99981	944.90035	-843.20292	-1204.01511	1128.46726	-494.80368	-1190.50183	1118.41983	-700.58631	-1193.67403	1118.58004	-507.91473	-1185.86768	1124.83834	-669.02072	
60	0.59000000	-1036.54789	750.16395	-437.93500	-1016.44209	670.98578	-455.12299	-1239.35560	409.03550	-468.39160	-1316.31062	378.87712	-505.47914	-1148.28829	352.95538	-427.29037	-1097.56548	374.68034	-483.28938	-1044.78673	738.09198	-740.53958	-1043.29294	638.49132	-739.10806	-1263.41753	410.26206	-720.19936	-1338.75360	375.35859	-681.36202	-1167.41471	350.82658	-764.52050	-1126.85021	370.19692	-706.68551	-1090.48939	582.20089	-436.73681	-1076.46502	716.55830	-423.21343	-1147.20563	629.66072	-421.51074	-1112.43874	692.67309	-755.05694	-1177.67056	588.66768	-760.54157	-1101.27053	1064.89552	-417.07013	-1061.93754	960.95201	-417.72829	-1160.31459	915.51299	-413.79620	-1206.82665	1023.84537	-411.82645	-1107.07690	918.42472	-395.94725	-1099.59589	999.43279	-797.78067	-1044.90766	875.46100	-770.77357	-1203.75900	959.50324	-759.54109	-1142.38580	833.23143	-743.88171	-1090.47242	1148.82654	-467.82343	-1224.00706	1281.99663	-555.96157	-1075.76164	1128.18100	-709.51382	-1218.99938	1285.69119	-659.74152	-939.18093	1585.85121	-594.60704	-871.86714	1481.76559	-421.98819	-867.66038	1507.87876	-767.03689	-841.76222	1476.76026	-572.68292	-836.00469	1480.17355	-606.22926	-916.30585	1349.34444	-370.81648	-1040.10959	1173.43991	-430.45978	-1017.89361	1172.66189	-362.07630	-946.17119	1050.41395	-373.21516	-904.86500	930.07738	-394.82980	-929.47938	915.16276	-374.70840	-890.92716	1390.31492	-823.93190	-1030.29336	1192.13290	-785.90163	-987.87708	1199.73094	-851.18657	-937.98093	1096.15013	-828.47476	-916.03048	948.47541	-814.75942	-935.92553	941.43822	-841.50293	-1197.91453	1124.09043	-493.46112	-1184.27825	1113.42225	-699.20484	-1187.11140	1114.57790	-506.88570	-1179.38659	1120.27827	-666.98863	
61	0.60000000	-1028.35098	747.16254	-436.37244	-1009.51670	667.06696	-454.24103	-1238.19119	410.15791	-468.18696	-1315.36424	381.15359	-505.16273	-1147.89195	352.92045	-426.78647	-1096.89013	374.10159	-482.69955	-1035.36642	734.29652	-739.84485	-1035.74564	634.57726	-738.48630	-1261.48754	412.10749	-720.30518	-1337.57165	378.27640	-681.21116	-1166.96850	350.78277	-764.45133	-1125.85029	369.66512	-706.90243	-1085.36320	580.02118	-435.92514	-1068.84229	714.33473	-421.95151	-1140.78499	628.27029	-420.49616	-1103.47329	690.45026	-754.65930	-1171.23647	588.08107	-760.01251	-1093.80200	1061.77626	-416.30749	-1053.76795	957.81325	-416.96622	-1152.44480	912.11388	-412.52955	-1199.34469	1019.90034	-410.92403	-1099.16083	915.11005	-394.99641	-1092.23000	995.30647	-797.02555	-1036.42329	871.72710	-770.01521	-1196.02870	954.42687	-758.48644	-1133.42816	828.57383	-742.98439	-1083.78911	1145.28399	-467.31799	-1218.29871	1277.55310	-555.08022	-1069.05580	1124.08514	-708.32742	-1213.23227	1280.81381	-659.11427	-935.07637	1582.83945	-593.31402	-867.39091	1478.77507	-420.60935	-862.44089	1505.13146	-765.34529	-837.02868	1473.92279	-571.23863	-831.35804	1477.25988	-604.48611	-911.23103	1346.26138	-369.01197	-1031.28245	1168.29907	-430.08583	-1010.10067	1168.03711	-361.28539	-935.53298	1047.21100	-372.01482	-891.61162	927.92000	-393.31835	-916.13269	912.38656	-373.42943	-884.95134	1387.69442	-821.81503	-1022.04895	1187.66229	-781.63743	-980.03644	1196.48517	-849.91448	-929.17192	1093.40636	-826.67999	-905.74824	945.94376	-813.23277	-925.27578	938.66999	-839.63792	-1191.08347	1119.82709	-492.41494	-1177.53853	1108.74382	-698.14316	-1180.21131	1110.72421	-506.19317	-1172.43374	1115.72946	-665.90184	
62	0.61000000	-1020.05803	744.29280	-434.63636	-1002.48563	663.24512	-453.44478	-1236.73374	411.64057	-467.65961	-1314.28885	383.78887	-504.71297	-1147.42022	352.71330	-426.56631	-1096.07872	373.41322	-482.27725	-1025.21547	730.54497	-739.09496	-1027.61221	630.92433	-737.99936	-1259.03403	414.60213	-720.41447	-1335.87762	382.41395	-681.11264	-1166.32233	350.79339	-764.23161	-1124.56209	369.01251	-707.09239	-1079.99916	577.91961	-435.27241	-1060.73000	711.96489	-420.79803	-1134.70237	627.02352	-419.67302	-1093.91501	688.44774	-754.09163	-1164.23970	587.87136	-759.54963	-1086.39572	1058.98688	-415.03760	-1046.06657	954.81251	-416.04595	-1144.33585	908.90420	-410.85404	-1191.61458	1016.05158	-409.83195	-1091.03791	911.68850	-394.05625	-1084.37975	991.11523	-796.32833	-1027.37300	868.03194	-769.26858	-1187.68776	949.34857	-757.29303	-1123.82791	824.00275	-742.04309	-1076.83627	1142.03729	-466.59234	-1212.37037	1273.23046	-554.24374	-1062.00823	1120.13386	-707.42296	-1207.27331	1275.97424	-658.40078	-931.27437	1580.27757	-591.91162	-862.98408	1476.32376	-419.16125	-857.33952	1503.17313	-763.95437	-832.40627	1471.81297	-569.70258	-826.87459	1475.20017	-602.85653	-906.14913	1343.73712	-366.78977	-1021.73205	1163.64582	-429.48066	-1001.99064	1163.93261	-359.79101	-924.32182	1044.79323	-370.15993	-877.42102	926.73509	-391.39819	-901.64239	910.20992	-372.15916	-879.00711	1385.70064	-820.02693	-1014.22553	1184.41014	-779.43983	-972.28417	1193.78059	-848.85277	-920.20369	1091.17146	-825.28018	-894.67581	944.28752	-811.28689	-914.00659	936.70415	-837.87846	-1183.90321	1115.71522	-491.33667	-1170.48340	1104.16142	-697.04697	-1173.08535	1106.96972	-505.32977	-1165.27183	1111.17584	-664.98736	
